<svg width="389" height="634" viewBox="0 0 389 634" fill="none" xmlns="http://www.w3.org/2000/svg">
<path d="M66.9 159.3V188.4H0V159.3L37.8 62.4001H0V33.3H66.9V62.4001L29.1 159.3H66.9Z" fill="#464950"/>
<path d="M103.7 188.3H74.6001L93.6001 33.3H133.3L152.3 188.3H123.2L121.1 161.9H105.8L103.7 188.3Z" fill="#464950"/>
<path d="M226.9 159.3V188.4H160V159.3L197.8 62.4H160V33.3H226.9V62.4L189.1 159.3H226.9ZM178.5 0L193.8 15.9L208.5 0H221.1L200.6 21.7H187L165.9 0H178.5Z" fill="#464950"/>
<path d="M223.4 21.7L221.5 14.3L274.8 0L276.7 7.6L223.4 21.7ZM234.7 188.3V33.3H263.8V188.3H234.7Z" fill="#464950"/>
<path d="M320.5 188.3H291.4V62.3H271.4V33.3H340.4V62.4001H320.4V188.3H320.5Z" fill="#464950"/>
<path d="M66.7 399.2V332.7L54.7 399.2H41.1L29.1 332.7V399.2H0V244.2H29.1L47.9 333.7L66.7 244.2H95.8V399.2H66.7Z" fill="#464950"/>
<path d="M114.1 210.8L129.4 226.7L144.1 210.8H156.7L136.2 232.5H122.6L101.5 210.8H114.1ZM130.6 307.2H156.8V336.3H130.6V370.2H156.8V399.3H101.6V244.3H156.8V273.4H130.6V307.2Z" fill="#464950"/>
<path d="M237.4 358.9C237.4 386.2 227.1 401.1 201.7 401.1C176.3 401.1 164.5 390.1 164.5 345.3H193.6C193.6 368.2 196.3 372 201.7 372C207.1 372 208.3 368.1 208.3 358.8C208.3 347.6 206.4 342.9 193.6 332.4C179.5 321 164.5 311.7 164.5 282.4C164.5 257 175.2 242.1 199.6 242.1C224 242.1 235.4 257 235.4 290.2H206.3C206.3 275.1 204 271.2 199.5 271.2C195 271.2 193.5 275.1 193.5 282.4C193.5 293.6 198.5 298.1 209.4 306.4C225.7 319 237.4 329.6 237.4 358.9Z" fill="#464950"/>
<path d="M290.3 399.2H261.2V273.2H241.2V244.1H310.2V273.2H290.2V399.2H290.3Z" fill="#464950"/>
<path d="M388.9 286.4V357C388.9 388.2 375.9 401.2 352.5 401.2C329.1 401.2 316.1 388.2 316.1 357V286.5C316.1 255.3 329.1 242.3 352.5 242.3C375.9 242.2 388.9 255.2 388.9 286.4Z" fill="#464950"/>
<path d="M336.4 453.7C359.8 453.7 372.8 466.7 372.8 497.9V509.5H343.7V499.8C343.7 486.6 342.7 482.7 336.3 482.7C329.9 482.7 328.9 486.6 328.9 499.8V610.6H300V497.8C300 466.6 312.9 453.7 336.4 453.7Z" fill="#464950"/>
<path d="M292.2 455.6V610.6H263.1V455.6H292.2Z" fill="#464950"/>
<path d="M201.3 455.6L226.3 532.1V455.6H255.4V610.6H226.3L201.3 534.1V610.6H172.2V455.6H201.3Z" fill="#464950"/>
<path d="M137.4 455.6H166.5L147.5 610.6H107.8L88.7998 455.6H117.9L120 482H135.3L137.4 455.6Z" fill="#464950"/>
<path d="M33.8999 455.6L51.8999 533.1L33.8999 610.6H3.8999L23.0999 533.1L3.8999 455.6H33.8999ZM80.9999 455.6V610.6H51.8999V455.6H80.9999Z" fill="#464950"/>
</svg>
